<svg width="200" height="200" viewBox="0 0 200 200" fill="none" xmlns="http://www.w3.org/2000/svg">
<path d="M100 200C155.228 200 200 155.228 200 100C200 44.7715 155.228 0 100 0C44.7715 0 0 44.7715 0 100C0 155.228 44.7715 200 100 200Z" fill="#FCB900"/>
<g clip-path="url(#clip0_6_99)">
<path d="M137.889 132.014L100.5 171L63.1115 132.014C55.7169 124.619 50.6811 115.197 48.641 104.941C46.6008 94.6839 47.648 84.0525 51.65 74.3909C55.652 64.7293 62.4291 56.4714 71.1243 50.6615C79.8195 44.8515 90.0424 41.7505 100.5 41.7505C110.958 41.7505 121.18 44.8515 129.876 50.6615C138.571 56.4714 145.348 64.7293 149.35 74.3909C153.352 84.0525 154.399 94.6839 152.359 104.941C150.319 115.197 145.283 124.619 137.889 132.014ZM100.5 118.125C106.733 118.125 112.71 115.649 117.117 111.242C121.524 106.835 124 100.858 124 94.625C124 88.3924 121.524 82.4151 117.117 78.008C112.71 73.6009 106.733 71.125 100.5 71.125C94.2674 71.125 88.2901 73.6009 83.883 78.008C79.4759 82.4151 77 88.3924 77 94.625C77 100.858 79.4759 106.835 83.883 111.242C88.2901 115.649 94.2674 118.125 100.5 118.125ZM100.5 106.375C97.3837 106.375 94.3951 105.137 92.1915 102.934C89.988 100.73 88.75 97.7413 88.75 94.625C88.75 91.5087 89.988 88.5201 92.1915 86.3165C94.3951 84.1129 97.3837 82.875 100.5 82.875C103.616 82.875 106.605 84.1129 108.809 86.3165C111.012 88.5201 112.25 91.5087 112.25 94.625C112.25 97.7413 111.012 100.73 108.809 102.934C106.605 105.137 103.616 106.375 100.5 106.375Z" fill="black"/>
</g>
<defs>
<clipPath id="clip0_6_99">
<rect width="141" height="141" fill="white" transform="translate(30 30)"/>
</clipPath>
</defs>
</svg>
