<svg width="200" height="200" viewBox="0 0 200 200" fill="none" xmlns="http://www.w3.org/2000/svg">
<path d="M100 200C155.228 200 200 155.228 200 100C200 44.7715 155.228 0 100 0C44.7715 0 0 44.7715 0 100C0 155.228 44.7715 200 100 200Z" fill="#FAFF04"/>
<path d="M40.68 143C38.7173 143 36.3707 142.275 33.64 140.824C30.9947 139.373 28.648 137.667 26.6 135.704C24.6373 133.741 23.656 132.12 23.656 130.84C23.656 128.621 25.7467 117.315 29.928 96.92C30.44 94.5307 31.2507 90.4773 32.36 84.76C33.5547 78.9573 34.3653 74.776 34.792 72.216L30.056 72.984C27.4107 70.5093 26.088 67.3947 26.088 63.64C26.088 60.9947 26.8133 58.264 28.264 55.448C35.176 53.656 42.1733 52.76 49.256 52.76C56.7653 52.76 63.72 53.7413 70.12 55.704C76.6053 57.6667 81.8533 60.696 85.864 64.792C89.8747 68.8027 91.88 73.8373 91.88 79.896C91.88 85.272 90.088 90.392 86.504 95.256C83.0053 100.035 77.8853 104.003 71.144 107.16C64.4027 110.317 56.4667 112.237 47.336 112.92C46.7387 117.016 46.2693 120.728 45.928 124.056C45.16 130.541 44.4347 135.32 43.752 138.392C43.0693 141.464 42.0453 143 40.68 143ZM49.256 97.048C56.68 95.5973 62.3973 93.3787 66.408 90.392C70.504 87.32 72.552 83.9067 72.552 80.152C72.552 77.592 71.272 75.4587 68.712 73.752C66.2373 71.96 62.8667 71.064 58.6 71.064C57.064 71.064 55.4 71.192 53.608 71.448L51.56 83.48C50.3653 90.2213 49.5973 94.744 49.256 97.048ZM110.828 143C108.865 143 106.519 142.317 103.788 140.952C101.143 139.501 98.796 137.795 96.748 135.832C94.7853 133.869 93.804 132.248 93.804 130.968C93.7187 129.603 94.1027 126.744 94.956 122.392C95.8947 117.955 96.492 115.096 96.748 113.816C97.0893 112.109 97.7293 108.995 98.668 104.472C99.6067 99.864 100.375 95.5973 100.972 91.672L101.996 85.656C103.617 76.0987 105.111 68.3333 106.476 62.36C107.927 56.3867 109.377 53.4 110.828 53.4C112.279 53.4 114.241 53.9973 116.716 55.192C119.276 56.3867 121.665 57.9227 123.884 59.8C126.103 61.592 127.596 63.2987 128.364 64.92C129.729 67.992 131.521 74.5627 133.74 84.632C135.276 91.6293 136.428 96.4507 137.196 99.096C140.865 93.5493 145.559 85.0587 151.276 73.624C154.945 66.3707 157.719 61.208 159.596 58.136C161.559 54.9787 163.308 53.4 164.844 53.4C166.465 53.4 168.641 54.1253 171.372 55.576C174.188 57.0267 176.62 58.7333 178.668 60.696C180.801 62.6587 181.868 64.3653 181.868 65.816C181.868 67.0107 181.356 70.3813 180.332 75.928C179.308 81.3893 178.668 84.8027 178.412 86.168L175.084 104.216C174.231 109.251 173.335 115.864 172.396 124.056C171.543 131.053 170.775 135.96 170.092 138.776C169.495 141.592 168.513 143 167.148 143C165.185 143 162.839 142.317 160.108 140.952C157.463 139.501 155.116 137.795 153.068 135.832C151.105 133.869 150.124 132.248 150.124 130.968C150.039 129.859 150.337 127.512 151.02 123.928C151.788 120.259 152.641 116.12 153.58 111.512C154.348 107.843 154.775 105.752 154.86 105.24L159.468 91.032L157.676 90.392L156.396 92.952C153.068 99.7787 150.38 105.112 148.332 108.952C146.369 112.707 144.748 115.395 143.468 117.016C142.615 118.04 141.079 118.893 138.86 119.576C136.641 120.173 134.465 120.472 132.332 120.472C130.113 120.472 128.62 120.088 127.852 119.32C127.084 118.637 126.401 117.229 125.804 115.096C125.292 112.877 124.567 109.464 123.628 104.856C123.457 103.917 122.988 101.656 122.22 98.072C121.452 94.4027 120.599 91.0747 119.66 88.088L118.764 104.216C117.911 109.251 117.015 115.864 116.076 124.056C115.223 131.053 114.455 135.96 113.772 138.776C113.175 141.592 112.193 143 110.828 143Z" fill="black"/>
</svg>
