<svg width="228" height="68" viewBox="0 0 228 68" fill="none" xmlns="http://www.w3.org/2000/svg">
<g filter="url(#filter0_i_5_5)">
<g filter="url(#filter1_d_5_5)">
<path d="M4 10C4 4.47715 8.47715 0 14 0H214C219.523 0 224 4.47715 224 10V50C224 55.5228 219.523 60 214 60H14C8.47716 60 4 55.5228 4 50V10Z" fill="#FCB900"/>
<path d="M14 0.5H214C219.247 0.5 223.5 4.7533 223.5 10V50C223.5 55.2467 219.247 59.5 214 59.5H14C8.7533 59.5 4.5 55.2467 4.5 50V10C4.5 4.7533 8.7533 0.5 14 0.5Z" stroke="black"/>
</g>
<mask id="path-3-outside-1_5_5" maskUnits="userSpaceOnUse" x="10" y="7" width="208" height="53" fill="black">
<rect fill="white" x="10" y="7" width="208" height="53"/>
<path d="M23.2467 28.7813L21.38 41.9973C22.1765 42.3956 23.1471 42.5947 24.292 42.5947C26.0342 42.5947 27.428 41.9476 28.4733 40.6533C29.5187 39.3591 30.2405 37.1689 30.6387 34.0827C31.0867 30.9964 31.0369 28.856 30.4893 27.6613C29.9916 26.4667 29.0209 25.8693 27.5773 25.8693C26.1338 25.8693 24.6902 26.84 23.2467 28.7813ZM17.4227 20.568H23.9187L23.6947 24.0027H23.7693C24.3667 23.3058 25.1631 22.6089 26.1587 21.912C28.0005 20.6178 29.6182 19.9707 31.012 19.9707C32.4556 19.9707 33.6502 20.2444 34.596 20.792C35.5418 21.3396 36.3133 22.1609 36.9107 23.256C38.1551 25.6951 38.5036 29.08 37.956 33.4107C37.3089 38.0898 35.8156 41.6738 33.476 44.1627C31.3853 46.5022 28.8218 47.672 25.7853 47.672C23.8938 47.672 22.2013 47.3236 20.708 46.6267L18.916 58.7227H12.0467L17.4227 20.568ZM57.3641 25.5707C56.4681 25.4711 55.2983 25.4213 53.8548 25.4213C52.4112 25.4213 51.1916 26.0187 50.1961 27.2133C49.2503 28.408 48.5534 30.5733 48.1054 33.7093C47.7072 36.7956 47.7321 38.9111 48.1801 40.056C48.6779 41.2009 49.6236 41.7733 51.0174 41.7733C51.8636 41.7733 52.685 41.5244 53.4814 41.0267C54.3276 40.4791 54.9996 39.9067 55.4974 39.3093L57.3641 25.5707ZM55.4974 43.864C52.6601 46.4027 49.8974 47.672 47.2094 47.672C43.3268 47.672 41.1116 45.2578 40.5641 40.4293C40.365 38.7369 40.4396 36.6462 40.7881 34.1573C41.1365 31.6187 41.7339 29.4533 42.5801 27.6613C43.4263 25.8693 44.4219 24.4009 45.5668 23.256C47.7072 21.1653 50.3703 20.12 53.5561 20.12C57.3392 20.12 61.1472 20.4933 64.9801 21.24L61.3214 47H55.4974V43.864ZM73.9516 47H67.0076L70.7409 20.568H76.8636L76.6396 24.0773H76.7143C77.4609 22.8827 78.4067 21.8871 79.5516 21.0907C80.6965 20.2942 81.6921 19.896 82.5383 19.896C83.3845 19.896 83.9321 19.9707 84.1809 20.12C84.4796 20.2196 84.7534 20.3191 85.0023 20.4187L83.5836 26.4667C83.2849 26.4169 82.8867 26.3173 82.3889 26.168C81.9409 26.0187 81.4183 25.944 80.8209 25.944C80.2236 25.944 79.6014 26.1431 78.9543 26.5413C78.3072 26.9396 77.4858 27.5867 76.4903 28.4827L73.9516 47ZM92.2499 9.96533L99.2686 8.99467L96.0579 31.992L104.346 20.568H112.186L101.957 32.3653L109.274 47H101.061L95.6846 34.3813L93.9672 47H87.0232L92.2499 9.96533ZM117.28 20.568H123.403L123.104 24.0773C123.353 23.8782 123.676 23.5547 124.075 23.1067C124.523 22.6089 125.045 22.136 125.643 21.688C127.186 20.5431 128.754 19.9707 130.347 19.9707C131.94 19.9707 133.134 20.2693 133.931 20.8667C134.727 21.4142 135.225 22.4596 135.424 24.0027C136.42 22.5591 138.012 21.3644 140.203 20.4187C140.999 20.12 141.845 19.9707 142.741 19.9707C144.981 19.9707 146.5 20.6676 147.296 22.0613C148.092 23.4551 148.267 25.7947 147.819 29.08L145.429 47H138.485L140.8 29.6773C141.049 28.5324 141.074 27.6364 140.875 26.9893C140.676 26.3422 140.128 26.0187 139.232 26.0187C138.485 26.0187 137.788 26.2924 137.141 26.84C136.146 27.6364 135.524 28.3333 135.275 28.9307L132.811 47H126.091L128.555 29.6773C128.754 28.5324 128.754 27.6364 128.555 26.9893C128.356 26.3422 127.783 26.0187 126.837 26.0187C126.041 26.0187 125.344 26.2924 124.747 26.84C123.751 27.736 123.154 28.4329 122.955 28.9307L120.416 47H113.547L117.28 20.568ZM166.848 25.5707C165.952 25.4711 164.783 25.4213 163.339 25.4213C161.896 25.4213 160.676 26.0187 159.68 27.2133C158.735 28.408 158.038 30.5733 157.59 33.7093C157.192 36.7956 157.216 38.9111 157.664 40.056C158.162 41.2009 159.108 41.7733 160.502 41.7733C161.348 41.7733 162.169 41.5244 162.966 41.0267C163.812 40.4791 164.484 39.9067 164.982 39.3093L166.848 25.5707ZM164.982 43.864C162.144 46.4027 159.382 47.672 156.694 47.672C152.811 47.672 150.596 45.2578 150.048 40.4293C149.849 38.7369 149.924 36.6462 150.272 34.1573C150.621 31.6187 151.218 29.4533 152.064 27.6613C152.911 25.8693 153.906 24.4009 155.051 23.256C157.192 21.1653 159.855 20.12 163.04 20.12C166.824 20.12 170.632 20.4933 174.464 21.24L170.806 47H164.982V43.864ZM192.545 20.568L191.948 25.6453H186.199L184.407 38.3387C184.208 39.4836 184.208 40.3298 184.407 40.8773C184.606 41.4249 185.104 41.6987 185.9 41.6987C186.746 41.6987 187.468 41.5991 188.065 41.4C188.663 41.1511 189.061 41.0018 189.26 40.952V45.88C189.061 45.9298 188.762 46.0542 188.364 46.2533C187.966 46.4524 187.518 46.6516 187.02 46.8507C185.776 47.3982 184.382 47.672 182.839 47.672C180.449 47.672 178.832 47.0498 177.985 45.8053C177.139 44.5111 176.915 42.3458 177.313 39.3093L179.329 25.6453H176.492L177.164 20.568H180.001L180.897 14.2213L187.991 13.1013L186.871 20.568H192.545ZM209.288 31.544C209.637 29.0053 209.562 27.2631 209.064 26.3173C208.566 25.3716 207.845 24.8987 206.899 24.8987C206.003 24.8987 205.082 25.3964 204.136 26.392C203.24 27.3378 202.618 29.0551 202.269 31.544H209.288ZM206.003 42.3707C208.193 42.3707 210.383 41.7484 212.573 40.504L213.32 45.1333C212.125 46.0293 210.134 46.7511 207.347 47.2987C206.301 47.5476 205.107 47.672 203.763 47.672C202.419 47.672 201.1 47.4231 199.805 46.9253C198.561 46.4276 197.541 45.656 196.744 44.6107C194.902 42.2213 194.305 38.8613 194.952 34.5307C195.599 29.8516 197.142 26.1929 199.581 23.5547C201.871 21.1653 204.559 19.9707 207.645 19.9707C212.325 19.9707 215.087 22.2107 215.933 26.6907C216.381 29.0302 216.207 31.7182 215.411 34.7547C215.261 35.4018 215.137 35.7751 215.037 35.8747H201.672C201.324 38.1644 201.573 39.832 202.419 40.8773C203.315 41.8729 204.509 42.3707 206.003 42.3707Z"/>
</mask>
<g filter="url(#filter2_i_5_5)">
<path d="M23.2467 28.7813L21.38 41.9973C22.1765 42.3956 23.1471 42.5947 24.292 42.5947C26.0342 42.5947 27.428 41.9476 28.4733 40.6533C29.5187 39.3591 30.2405 37.1689 30.6387 34.0827C31.0867 30.9964 31.0369 28.856 30.4893 27.6613C29.9916 26.4667 29.0209 25.8693 27.5773 25.8693C26.1338 25.8693 24.6902 26.84 23.2467 28.7813ZM17.4227 20.568H23.9187L23.6947 24.0027H23.7693C24.3667 23.3058 25.1631 22.6089 26.1587 21.912C28.0005 20.6178 29.6182 19.9707 31.012 19.9707C32.4556 19.9707 33.6502 20.2444 34.596 20.792C35.5418 21.3396 36.3133 22.1609 36.9107 23.256C38.1551 25.6951 38.5036 29.08 37.956 33.4107C37.3089 38.0898 35.8156 41.6738 33.476 44.1627C31.3853 46.5022 28.8218 47.672 25.7853 47.672C23.8938 47.672 22.2013 47.3236 20.708 46.6267L18.916 58.7227H12.0467L17.4227 20.568ZM57.3641 25.5707C56.4681 25.4711 55.2983 25.4213 53.8548 25.4213C52.4112 25.4213 51.1916 26.0187 50.1961 27.2133C49.2503 28.408 48.5534 30.5733 48.1054 33.7093C47.7072 36.7956 47.7321 38.9111 48.1801 40.056C48.6779 41.2009 49.6236 41.7733 51.0174 41.7733C51.8636 41.7733 52.685 41.5244 53.4814 41.0267C54.3276 40.4791 54.9996 39.9067 55.4974 39.3093L57.3641 25.5707ZM55.4974 43.864C52.6601 46.4027 49.8974 47.672 47.2094 47.672C43.3268 47.672 41.1116 45.2578 40.5641 40.4293C40.365 38.7369 40.4396 36.6462 40.7881 34.1573C41.1365 31.6187 41.7339 29.4533 42.5801 27.6613C43.4263 25.8693 44.4219 24.4009 45.5668 23.256C47.7072 21.1653 50.3703 20.12 53.5561 20.12C57.3392 20.12 61.1472 20.4933 64.9801 21.24L61.3214 47H55.4974V43.864ZM73.9516 47H67.0076L70.7409 20.568H76.8636L76.6396 24.0773H76.7143C77.4609 22.8827 78.4067 21.8871 79.5516 21.0907C80.6965 20.2942 81.6921 19.896 82.5383 19.896C83.3845 19.896 83.9321 19.9707 84.1809 20.12C84.4796 20.2196 84.7534 20.3191 85.0023 20.4187L83.5836 26.4667C83.2849 26.4169 82.8867 26.3173 82.3889 26.168C81.9409 26.0187 81.4183 25.944 80.8209 25.944C80.2236 25.944 79.6014 26.1431 78.9543 26.5413C78.3072 26.9396 77.4858 27.5867 76.4903 28.4827L73.9516 47ZM92.2499 9.96533L99.2686 8.99467L96.0579 31.992L104.346 20.568H112.186L101.957 32.3653L109.274 47H101.061L95.6846 34.3813L93.9672 47H87.0232L92.2499 9.96533ZM117.28 20.568H123.403L123.104 24.0773C123.353 23.8782 123.676 23.5547 124.075 23.1067C124.523 22.6089 125.045 22.136 125.643 21.688C127.186 20.5431 128.754 19.9707 130.347 19.9707C131.94 19.9707 133.134 20.2693 133.931 20.8667C134.727 21.4142 135.225 22.4596 135.424 24.0027C136.42 22.5591 138.012 21.3644 140.203 20.4187C140.999 20.12 141.845 19.9707 142.741 19.9707C144.981 19.9707 146.5 20.6676 147.296 22.0613C148.092 23.4551 148.267 25.7947 147.819 29.08L145.429 47H138.485L140.8 29.6773C141.049 28.5324 141.074 27.6364 140.875 26.9893C140.676 26.3422 140.128 26.0187 139.232 26.0187C138.485 26.0187 137.788 26.2924 137.141 26.84C136.146 27.6364 135.524 28.3333 135.275 28.9307L132.811 47H126.091L128.555 29.6773C128.754 28.5324 128.754 27.6364 128.555 26.9893C128.356 26.3422 127.783 26.0187 126.837 26.0187C126.041 26.0187 125.344 26.2924 124.747 26.84C123.751 27.736 123.154 28.4329 122.955 28.9307L120.416 47H113.547L117.28 20.568ZM166.848 25.5707C165.952 25.4711 164.783 25.4213 163.339 25.4213C161.896 25.4213 160.676 26.0187 159.68 27.2133C158.735 28.408 158.038 30.5733 157.59 33.7093C157.192 36.7956 157.216 38.9111 157.664 40.056C158.162 41.2009 159.108 41.7733 160.502 41.7733C161.348 41.7733 162.169 41.5244 162.966 41.0267C163.812 40.4791 164.484 39.9067 164.982 39.3093L166.848 25.5707ZM164.982 43.864C162.144 46.4027 159.382 47.672 156.694 47.672C152.811 47.672 150.596 45.2578 150.048 40.4293C149.849 38.7369 149.924 36.6462 150.272 34.1573C150.621 31.6187 151.218 29.4533 152.064 27.6613C152.911 25.8693 153.906 24.4009 155.051 23.256C157.192 21.1653 159.855 20.12 163.04 20.12C166.824 20.12 170.632 20.4933 174.464 21.24L170.806 47H164.982V43.864ZM192.545 20.568L191.948 25.6453H186.199L184.407 38.3387C184.208 39.4836 184.208 40.3298 184.407 40.8773C184.606 41.4249 185.104 41.6987 185.9 41.6987C186.746 41.6987 187.468 41.5991 188.065 41.4C188.663 41.1511 189.061 41.0018 189.26 40.952V45.88C189.061 45.9298 188.762 46.0542 188.364 46.2533C187.966 46.4524 187.518 46.6516 187.02 46.8507C185.776 47.3982 184.382 47.672 182.839 47.672C180.449 47.672 178.832 47.0498 177.985 45.8053C177.139 44.5111 176.915 42.3458 177.313 39.3093L179.329 25.6453H176.492L177.164 20.568H180.001L180.897 14.2213L187.991 13.1013L186.871 20.568H192.545ZM209.288 31.544C209.637 29.0053 209.562 27.2631 209.064 26.3173C208.566 25.3716 207.845 24.8987 206.899 24.8987C206.003 24.8987 205.082 25.3964 204.136 26.392C203.24 27.3378 202.618 29.0551 202.269 31.544H209.288ZM206.003 42.3707C208.193 42.3707 210.383 41.7484 212.573 40.504L213.32 45.1333C212.125 46.0293 210.134 46.7511 207.347 47.2987C206.301 47.5476 205.107 47.672 203.763 47.672C202.419 47.672 201.1 47.4231 199.805 46.9253C198.561 46.4276 197.541 45.656 196.744 44.6107C194.902 42.2213 194.305 38.8613 194.952 34.5307C195.599 29.8516 197.142 26.1929 199.581 23.5547C201.871 21.1653 204.559 19.9707 207.645 19.9707C212.325 19.9707 215.087 22.2107 215.933 26.6907C216.381 29.0302 216.207 31.7182 215.411 34.7547C215.261 35.4018 215.137 35.7751 215.037 35.8747H201.672C201.324 38.1644 201.573 39.832 202.419 40.8773C203.315 41.8729 204.509 42.3707 206.003 42.3707Z" fill="black"/>
</g>
<path d="M23.2467 28.7813L22.4442 28.1846L22.2921 28.3891L22.2565 28.6415L23.2467 28.7813ZM21.38 41.9973L20.3898 41.8575L20.2892 42.57L20.9328 42.8918L21.38 41.9973ZM28.4733 40.6533L29.2513 41.2817L29.2513 41.2817L28.4733 40.6533ZM30.6387 34.0827L29.649 33.939L29.6479 33.9468L29.6469 33.9547L30.6387 34.0827ZM30.4893 27.6613L29.5663 28.0459L29.573 28.0621L29.5803 28.078L30.4893 27.6613ZM17.4227 20.568V19.568H16.5537L16.4325 20.4285L17.4227 20.568ZM23.9187 20.568L24.9166 20.6331L24.986 19.568H23.9187V20.568ZM23.6947 24.0027L22.6968 23.9376L22.6273 25.0027H23.6947V24.0027ZM23.7693 24.0027V25.0027H24.2293L24.5286 24.6535L23.7693 24.0027ZM26.1587 21.912L26.7321 22.7312L26.7336 22.7302L26.1587 21.912ZM34.596 20.792L34.095 21.6574L34.095 21.6574L34.596 20.792ZM36.9107 23.256L37.8014 22.8015L37.7952 22.7893L37.7886 22.7771L36.9107 23.256ZM37.956 33.4107L38.9466 33.5477L38.9481 33.5361L37.956 33.4107ZM33.476 44.1627L32.7474 43.4778L32.7388 43.4869L32.7304 43.4963L33.476 44.1627ZM20.708 46.6267L21.1309 45.7205L19.9154 45.1532L19.7188 46.4801L20.708 46.6267ZM18.916 58.7227V59.7227H19.7788L19.9052 58.8692L18.916 58.7227ZM12.0467 58.7227L11.0565 58.5831L10.8959 59.7227H12.0467V58.7227ZM22.2565 28.6415L20.3898 41.8575L22.3702 42.1372L24.2368 28.9212L22.2565 28.6415ZM20.9328 42.8918C21.902 43.3764 23.0348 43.5947 24.292 43.5947V41.5947C23.2594 41.5947 22.4509 41.4148 21.8272 41.1029L20.9328 42.8918ZM24.292 43.5947C26.3199 43.5947 28.006 42.8235 29.2513 41.2817L27.6954 40.025C26.85 41.0716 25.7486 41.5947 24.292 41.5947V43.5947ZM29.2513 41.2817C30.4759 39.7655 31.226 37.345 31.6305 34.2106L29.6469 33.9547C29.2549 36.9927 28.5615 38.9527 27.6954 40.025L29.2513 41.2817ZM31.6283 34.2263C31.857 32.6505 31.9637 31.2844 31.9371 30.1394C31.9108 29.0083 31.7534 28.0193 31.3984 27.2447L29.5803 28.078C29.7728 28.498 29.9141 29.1766 29.9376 30.1859C29.9608 31.1814 29.8683 32.4286 29.649 33.939L31.6283 34.2263ZM31.4124 27.2767C31.0942 26.513 30.5998 25.8889 29.9121 25.4657C29.2322 25.0473 28.4354 24.8693 27.5773 24.8693V26.8693C28.1629 26.8693 28.5731 26.9901 28.8639 27.169C29.1469 27.3431 29.3867 27.615 29.5663 28.0459L31.4124 27.2767ZM27.5773 24.8693C25.6533 24.8693 23.9502 26.1593 22.4442 28.1846L24.0491 29.378C25.4303 27.5207 26.6143 26.8693 27.5773 26.8693V24.8693ZM17.4227 21.568H23.9187V19.568H17.4227V21.568ZM22.9208 20.5029L22.6968 23.9376L24.6926 24.0677L24.9166 20.6331L22.9208 20.5029ZM23.6947 25.0027H23.7693V23.0027H23.6947V25.0027ZM24.5286 24.6535C25.057 24.037 25.7846 23.3945 26.7321 22.7312L25.5852 21.0928C24.5417 21.8233 23.6764 22.5745 23.0101 23.3519L24.5286 24.6535ZM26.7336 22.7302C28.5019 21.4877 29.9156 20.9707 31.012 20.9707V18.9707C29.3209 18.9707 27.4991 19.7479 25.5837 21.0938L26.7336 22.7302ZM31.012 20.9707C32.3344 20.9707 33.3427 21.2219 34.095 21.6574L35.097 19.9266C33.9577 19.267 32.5767 18.9707 31.012 18.9707V20.9707ZM34.095 21.6574C34.8606 22.1007 35.5106 22.7775 36.0328 23.7349L37.7886 22.7771C37.1161 21.5443 36.223 20.5784 35.097 19.9266L34.095 21.6574ZM36.0199 23.7105C37.1336 25.8934 37.5 29.0451 36.9639 33.2852L38.9481 33.5361C39.5071 29.1149 39.1766 25.4968 37.8014 22.8015L36.0199 23.7105ZM36.9654 33.2737C36.3361 37.824 34.8999 41.1879 32.7474 43.4778L34.2046 44.8476C36.7313 42.1597 38.2817 38.3556 38.9466 33.5477L36.9654 33.2737ZM32.7304 43.4963C30.8222 45.6316 28.5264 46.672 25.7853 46.672V48.672C29.1171 48.672 31.9485 47.3728 34.2217 44.829L32.7304 43.4963ZM25.7853 46.672C24.0183 46.672 22.4736 46.3471 21.1309 45.7205L20.2851 47.5328C21.9291 48.3 23.7692 48.672 25.7853 48.672V46.672ZM19.7188 46.4801L17.9268 58.5761L19.9052 58.8692L21.6972 46.7732L19.7188 46.4801ZM18.916 57.7227H12.0467V59.7227H18.916V57.7227ZM13.0369 58.8622L18.4129 20.7075L16.4325 20.4285L11.0565 58.5831L13.0369 58.8622ZM57.3641 25.5707L58.355 25.7053L58.4929 24.6899L57.4745 24.5768L57.3641 25.5707ZM50.1961 27.2133L49.4279 26.5731L49.4198 26.5828L49.412 26.5926L50.1961 27.2133ZM48.1054 33.7093L47.1154 33.5679L47.1136 33.5814L48.1054 33.7093ZM48.1801 40.056L47.2489 40.4204L47.2556 40.4377L47.263 40.4547L48.1801 40.056ZM53.4814 41.0267L54.0114 41.8747L54.0181 41.8705L54.0247 41.8662L53.4814 41.0267ZM55.4974 39.3093L56.2656 39.9495L56.4496 39.7287L56.4883 39.444L55.4974 39.3093ZM55.4974 43.864H56.4974V41.6274L54.8306 43.1188L55.4974 43.864ZM40.5641 40.4293L41.5577 40.3167L41.5572 40.3125L40.5641 40.4293ZM40.7881 34.1573L41.7784 34.296L41.7788 34.2933L40.7881 34.1573ZM42.5801 27.6613L41.6758 27.2343L41.6758 27.2343L42.5801 27.6613ZM45.5668 23.256L44.868 22.5406L44.8597 22.5489L45.5668 23.256ZM64.9801 21.24L65.9702 21.3806L66.1037 20.4401L65.1713 20.2585L64.9801 21.24ZM61.3214 47V48H62.1894L62.3115 47.1406L61.3214 47ZM55.4974 47H54.4974V48H55.4974V47ZM57.4745 24.5768C56.5268 24.4715 55.3161 24.4213 53.8548 24.4213V26.4213C55.2805 26.4213 56.4094 26.4707 57.2537 26.5645L57.4745 24.5768ZM53.8548 24.4213C52.0893 24.4213 50.5967 25.1706 49.4279 26.5731L50.9643 27.8535C51.7866 26.8668 52.7332 26.4213 53.8548 26.4213V24.4213ZM49.412 26.5926C48.2898 28.0103 47.5669 30.4082 47.1155 33.5679L49.0954 33.8508C49.54 30.7385 50.2109 28.8057 50.9801 27.834L49.412 26.5926ZM47.1136 33.5814C46.9111 35.1514 46.8123 36.5018 46.8255 37.6224C46.8385 38.7268 46.9601 39.6826 47.2489 40.4204L49.1113 39.6916C48.952 39.2845 48.8373 38.6101 48.8254 37.5989C48.8137 36.604 48.9016 35.3535 49.0972 33.8373L47.1136 33.5814ZM47.263 40.4547C47.5834 41.1916 48.0725 41.7925 48.745 42.1995C49.4099 42.602 50.1851 42.7733 51.0174 42.7733V40.7733C50.456 40.7733 50.0614 40.6585 49.7806 40.4885C49.5073 40.3231 49.2746 40.0653 49.0972 39.6573L47.263 40.4547ZM51.0174 42.7733C52.0712 42.7733 53.0741 42.4605 54.0114 41.8747L52.9514 40.1787C52.2959 40.5884 51.6561 40.7733 51.0174 40.7733V42.7733ZM54.0247 41.8662C54.9319 41.2792 55.6875 40.6433 56.2656 39.9495L54.7292 38.6691C54.3118 39.1701 53.7234 39.679 52.9382 40.1871L54.0247 41.8662ZM56.4883 39.444L58.355 25.7053L56.3732 25.436L54.5065 39.1747L56.4883 39.444ZM54.8306 43.1188C52.1008 45.5613 49.5657 46.672 47.2094 46.672V48.672C50.2292 48.672 53.2194 47.2441 56.1642 44.6092L54.8306 43.1188ZM47.2094 46.672C45.4918 46.672 44.256 46.1477 43.3729 45.1853C42.4625 44.193 41.8186 42.6173 41.5577 40.3167L39.5705 40.542C39.8571 43.0698 40.5946 45.1154 41.8993 46.5374C43.2313 47.9892 45.0444 48.672 47.2094 48.672V46.672ZM41.5572 40.3125C41.3716 38.7348 41.4368 36.7362 41.7784 34.296L39.7978 34.0187C39.4425 36.5562 39.3583 38.739 39.5709 40.5462L41.5572 40.3125ZM41.7788 34.2933C42.1172 31.8276 42.6922 29.7659 43.4843 28.0883L41.6758 27.2343C40.7756 29.1408 40.1558 31.4097 39.7974 34.0214L41.7788 34.2933ZM43.4843 28.0883C44.2921 26.3779 45.2262 25.0108 46.2739 23.9631L44.8597 22.5489C43.6175 23.791 42.5606 25.3608 41.6758 27.2343L43.4843 28.0883ZM46.2655 23.9714C48.2062 22.0758 50.6128 21.12 53.5561 21.12V19.12C50.1278 19.12 47.2082 20.2548 44.868 22.5406L46.2655 23.9714ZM53.5561 21.12C57.273 21.12 61.017 21.4868 64.7889 22.2215L65.1713 20.2585C61.2774 19.4999 57.4054 19.12 53.5561 19.12V21.12ZM63.99 21.0994L60.3314 46.8594L62.3115 47.1406L65.9702 21.3806L63.99 21.0994ZM61.3214 46H55.4974V48H61.3214V46ZM56.4974 47V43.864H54.4974V47H56.4974ZM73.9516 47V48H74.8239L74.9423 47.1358L73.9516 47ZM67.0076 47L66.0174 46.8601L65.8564 48H67.0076V47ZM70.7409 20.568V19.568H69.8723L69.7508 20.4281L70.7409 20.568ZM76.8636 20.568L77.8616 20.6317L77.9295 19.568H76.8636V20.568ZM76.6396 24.0773L75.6416 24.0136L75.5737 25.0773H76.6396V24.0773ZM76.7143 24.0773V25.0773H77.2685L77.5623 24.6073L76.7143 24.0773ZM79.5516 21.0907L80.1227 21.9116L80.1227 21.9116L79.5516 21.0907ZM84.1809 20.12L83.6665 20.9775L83.7606 21.034L83.8647 21.0687L84.1809 20.12ZM85.0023 20.4187L85.9759 20.647L86.1723 19.8096L85.3737 19.4902L85.0023 20.4187ZM83.5836 26.4667L83.4192 27.4531L84.3433 27.6071L84.5572 26.695L83.5836 26.4667ZM82.3889 26.168L82.0727 27.1167L82.0871 27.1215L82.1016 27.1258L82.3889 26.168ZM78.9543 26.5413L79.4784 27.393L79.4784 27.393L78.9543 26.5413ZM76.4903 28.4827L75.8213 27.7394L75.5493 27.9842L75.4995 28.3468L76.4903 28.4827ZM73.9516 46H67.0076V48H73.9516V46ZM67.9978 47.1399L71.7311 20.7079L69.7508 20.4281L66.0174 46.8601L67.9978 47.1399ZM70.7409 21.568H76.8636V19.568H70.7409V21.568ZM75.8656 20.5043L75.6416 24.0136L77.6376 24.141L77.8616 20.6317L75.8656 20.5043ZM76.6396 25.0773H76.7143V23.0773H76.6396V25.0773ZM77.5623 24.6073C78.238 23.5262 79.09 22.63 80.1227 21.9116L78.9806 20.2698C77.7235 21.1442 76.6839 22.2392 75.8663 23.5473L77.5623 24.6073ZM80.1227 21.9116C81.1985 21.1632 81.9901 20.896 82.5383 20.896V18.896C81.394 18.896 80.1945 19.4253 78.9805 20.2698L80.1227 21.9116ZM82.5383 20.896C82.9372 20.896 83.2364 20.9139 83.4485 20.9428C83.6875 20.9754 83.721 21.0102 83.6665 20.9775L84.6954 19.2625C84.392 19.0805 84.0273 19.0033 83.7187 18.9612C83.3833 18.9154 82.9856 18.896 82.5383 18.896V20.896ZM83.8647 21.0687C84.1479 21.1631 84.403 21.256 84.6309 21.3471L85.3737 19.4902C85.1038 19.3822 84.8113 19.276 84.4972 19.1713L83.8647 21.0687ZM84.0287 20.1903L82.61 26.2383L84.5572 26.695L85.9759 20.647L84.0287 20.1903ZM83.748 25.4803C83.51 25.4406 83.1579 25.3547 82.6763 25.2102L82.1016 27.1258C82.6156 27.28 83.0599 27.3932 83.4192 27.4531L83.748 25.4803ZM82.7052 25.2193C82.1323 25.0284 81.4986 24.944 80.8209 24.944V26.944C81.3379 26.944 81.7496 27.009 82.0727 27.1167L82.7052 25.2193ZM80.8209 24.944C79.9944 24.944 79.1925 25.2205 78.4302 25.6897L79.4784 27.393C80.0102 27.0657 80.4528 26.944 80.8209 26.944V24.944ZM78.4302 25.6897C77.707 26.1347 76.8334 26.8285 75.8213 27.7394L77.1592 29.226C78.1383 28.3448 78.9074 27.7444 79.4784 27.393L78.4302 25.6897ZM75.4995 28.3468L72.9609 46.8642L74.9423 47.1358L77.481 28.6185L75.4995 28.3468ZM92.2499 9.96533L92.1129 8.97476L91.3652 9.07817L91.2597 9.82559L92.2499 9.96533ZM99.2686 8.99467L100.259 9.13294L100.442 7.82289L99.1316 8.0041L99.2686 8.99467ZM96.0579 31.992L95.0675 31.8537L96.8673 32.5792L96.0579 31.992ZM104.346 20.568V19.568H103.836L103.536 19.9808L104.346 20.568ZM112.186 20.568L112.941 21.2231L114.377 19.568H112.186V20.568ZM101.957 32.3653L101.201 31.7102L100.763 32.215L101.062 32.8125L101.957 32.3653ZM109.274 47V48H110.892L110.168 46.5528L109.274 47ZM101.061 47L100.141 47.3919L100.4 48H101.061V47ZM95.6846 34.3813L96.6046 33.9894L95.1829 30.6523L94.6937 34.2465L95.6846 34.3813ZM93.9672 47V48H94.8404L94.9581 47.1349L93.9672 47ZM87.0232 47L86.0331 46.8603L85.8722 48H87.0232V47ZM92.3869 10.9559L99.4056 9.98524L99.1316 8.0041L92.1129 8.97476L92.3869 10.9559ZM98.2782 8.8564L95.0675 31.8537L97.0483 32.1303L100.259 9.13294L98.2782 8.8564ZM96.8673 32.5792L105.155 21.1552L103.536 19.9808L95.2485 31.4048L96.8673 32.5792ZM104.346 21.568H112.186V19.568H104.346V21.568ZM111.43 19.9129L101.201 31.7102L102.712 33.0204L112.941 21.2231L111.43 19.9129ZM101.062 32.8125L108.379 47.4472L110.168 46.5528L102.851 31.9181L101.062 32.8125ZM109.274 46H101.061V48H109.274V46ZM101.981 46.6081L96.6046 33.9894L94.7646 34.7733L100.141 47.3919L101.981 46.6081ZM94.6937 34.2465L92.9764 46.8651L94.9581 47.1349L96.6754 34.5162L94.6937 34.2465ZM93.9672 46H87.0232V48H93.9672V46ZM88.0134 47.1397L93.2401 10.1051L91.2597 9.82559L86.0331 46.8603L88.0134 47.1397ZM117.28 20.568V19.568H116.411L116.29 20.4281L117.28 20.568ZM123.403 20.568L124.399 20.6528L124.491 19.568H123.403V20.568ZM123.104 24.0773L122.108 23.9925L121.91 26.3131L123.729 24.8582L123.104 24.0773ZM124.075 23.1067L123.331 22.4377L123.327 22.4423L124.075 23.1067ZM125.643 21.688L125.047 20.8849L125.043 20.888L125.643 21.688ZM133.931 20.8667L133.331 21.6667L133.347 21.679L133.364 21.6907L133.931 20.8667ZM135.424 24.0027L134.432 24.1306L134.766 26.718L136.247 24.5704L135.424 24.0027ZM140.203 20.4187L139.852 19.4823L139.829 19.4909L139.806 19.5006L140.203 20.4187ZM147.819 29.08L146.828 28.9449L146.827 28.9478L147.819 29.08ZM145.429 47V48H146.305L146.421 47.1322L145.429 47ZM138.485 47L137.494 46.8676L137.343 48H138.485V47ZM140.8 29.6773L139.823 29.4649L139.814 29.5046L139.809 29.5449L140.8 29.6773ZM140.875 26.9893L141.83 26.6952L141.83 26.6952L140.875 26.9893ZM137.141 26.84L137.766 27.6209L137.777 27.6123L137.787 27.6034L137.141 26.84ZM135.275 28.9307L134.352 28.5461L134.301 28.6664L134.284 28.7956L135.275 28.9307ZM132.811 47V48H133.684L133.802 47.1351L132.811 47ZM126.091 47L125.101 46.8592L124.938 48H126.091V47ZM128.555 29.6773L127.569 29.506L127.567 29.5212L127.565 29.5365L128.555 29.6773ZM124.747 26.84L125.416 27.5833L125.422 27.5772L124.747 26.84ZM122.955 28.9307L122.026 28.5593L121.981 28.6717L121.964 28.7915L122.955 28.9307ZM120.416 47V48H121.285L121.406 47.1391L120.416 47ZM113.547 47L112.557 46.8601L112.396 48H113.547V47ZM117.28 21.568H123.403V19.568H117.28V21.568ZM122.406 20.4832L122.108 23.9925L124.1 24.1621L124.399 20.6528L122.406 20.4832ZM123.729 24.8582C124.045 24.6054 124.413 24.2313 124.822 23.771L123.327 22.4423C122.94 22.878 122.661 23.151 122.479 23.2965L123.729 24.8582ZM124.818 23.7756C125.218 23.3312 125.691 22.9015 126.243 22.488L125.043 20.888C124.399 21.3705 123.827 21.8866 123.331 22.4377L124.818 23.7756ZM126.239 22.4911C127.646 21.447 129.01 20.9707 130.347 20.9707V18.9707C128.498 18.9707 126.726 19.6392 125.047 20.8849L126.239 22.4911ZM130.347 20.9707C131.843 20.9707 132.784 21.2564 133.331 21.6667L134.531 20.0667C133.485 19.2823 132.036 18.9707 130.347 18.9707V20.9707ZM133.364 21.6907C133.816 22.0014 134.248 22.7016 134.432 24.1306L136.416 23.8747C136.202 22.2175 135.638 20.8271 134.497 20.0426L133.364 21.6907ZM136.247 24.5704C137.104 23.3276 138.521 22.234 140.599 21.3367L139.806 19.5006C137.504 20.4949 135.735 21.7906 134.601 23.4349L136.247 24.5704ZM140.554 21.355C141.232 21.1006 141.959 20.9707 142.741 20.9707V18.9707C141.732 18.9707 140.766 19.1394 139.852 19.4823L140.554 21.355ZM142.741 20.9707C144.782 20.9707 145.876 21.5924 146.428 22.5575L148.164 21.5652C147.123 19.7427 145.181 18.9707 142.741 18.9707V20.9707ZM146.428 22.5575C147.047 23.6416 147.272 25.6859 146.828 28.9449L148.81 29.2151C149.261 25.9035 149.138 23.2686 148.164 21.5652L146.428 22.5575ZM146.827 28.9478L144.438 46.8678L146.421 47.1322L148.81 29.2122L146.827 28.9478ZM145.429 46H138.485V48H145.429V46ZM139.477 47.1324L141.791 29.8098L139.809 29.5449L137.494 46.8676L139.477 47.1324ZM141.777 29.8898C142.039 28.6838 142.105 27.5864 141.83 26.6952L139.919 27.2834C140.043 27.6865 140.058 28.3811 139.823 29.4649L141.777 29.8898ZM141.83 26.6952C141.663 26.1505 141.326 25.6975 140.823 25.4004C140.345 25.1178 139.789 25.0187 139.232 25.0187V27.0187C139.571 27.0187 139.737 27.0814 139.806 27.1223C139.851 27.1487 139.887 27.1811 139.919 27.2834L141.83 26.6952ZM139.232 25.0187C138.217 25.0187 137.297 25.3982 136.495 26.0766L137.787 27.6034C138.28 27.1867 138.754 27.0187 139.232 27.0187V25.0187ZM136.517 26.0591C135.494 26.8772 134.702 27.7051 134.352 28.5461L136.198 29.3153C136.345 28.9616 136.797 28.3957 137.766 27.6209L136.517 26.0591ZM134.284 28.7956L131.82 46.8649L133.802 47.1351L136.266 29.0658L134.284 28.7956ZM132.811 46H126.091V48H132.811V46ZM127.081 47.1408L129.545 29.8182L127.565 29.5365L125.101 46.8592L127.081 47.1408ZM129.54 29.8487C129.749 28.645 129.778 27.5648 129.51 26.6952L127.599 27.2834C127.73 27.7081 127.758 28.4199 127.569 29.506L129.54 29.8487ZM129.51 26.6952C129.338 26.1354 128.984 25.6824 128.468 25.3908C127.98 25.115 127.412 25.0187 126.837 25.0187V27.0187C127.209 27.0187 127.399 27.0841 127.484 27.1319C127.54 27.1638 127.572 27.1962 127.599 27.2834L129.51 26.6952ZM126.837 25.0187C125.786 25.0187 124.849 25.3895 124.071 26.1028L125.422 27.5772C125.839 27.1954 126.296 27.0187 126.837 27.0187V25.0187ZM124.078 26.0967C123.561 26.5617 123.129 26.9916 122.793 27.3839C122.466 27.7651 122.185 28.1613 122.026 28.5593L123.883 29.3021C123.923 29.2023 124.041 29.0011 124.311 28.6855C124.572 28.3809 124.937 28.0143 125.416 27.5833L124.078 26.0967ZM121.964 28.7915L119.426 46.8609L121.406 47.1391L123.945 29.0698L121.964 28.7915ZM120.416 46H113.547V48H120.416V46ZM114.537 47.1399L118.27 20.7079L116.29 20.4281L112.557 46.8601L114.537 47.1399ZM166.848 25.5707L167.839 25.7053L167.977 24.6899L166.959 24.5768L166.848 25.5707ZM159.68 27.2133L158.912 26.5731L158.904 26.5828L158.896 26.5926L159.68 27.2133ZM157.59 33.7093L156.6 33.5679L156.598 33.5814L157.59 33.7093ZM157.664 40.056L156.733 40.4204L156.74 40.4377L156.747 40.4547L157.664 40.056ZM162.966 41.0267L163.496 41.8747L163.502 41.8705L163.509 41.8662L162.966 41.0267ZM164.982 39.3093L165.75 39.9495L165.934 39.7287L165.973 39.444L164.982 39.3093ZM164.982 43.864H165.982V41.6274L164.315 43.1188L164.982 43.864ZM150.048 40.4293L151.042 40.3167L151.042 40.3125L150.048 40.4293ZM150.272 34.1573L151.263 34.296L151.263 34.2933L150.272 34.1573ZM152.064 27.6613L151.16 27.2343L151.16 27.2343L152.064 27.6613ZM155.051 23.256L154.352 22.5406L154.344 22.5489L155.051 23.256ZM174.464 21.24L175.455 21.3806L175.588 20.4401L174.656 20.2585L174.464 21.24ZM170.806 47V48H171.674L171.796 47.1406L170.806 47ZM164.982 47H163.982V48H164.982V47ZM166.959 24.5768C166.011 24.4715 164.801 24.4213 163.339 24.4213V26.4213C164.765 26.4213 165.894 26.4707 166.738 26.5645L166.959 24.5768ZM163.339 24.4213C161.574 24.4213 160.081 25.1706 158.912 26.5731L160.449 27.8535C161.271 26.8668 162.218 26.4213 163.339 26.4213V24.4213ZM158.896 26.5926C157.774 28.0103 157.051 30.4082 156.6 33.5679L158.58 33.8508C159.024 30.7385 159.695 28.8057 160.465 27.834L158.896 26.5926ZM156.598 33.5814C156.395 35.1514 156.297 36.5018 156.31 37.6224C156.323 38.7268 156.445 39.6826 156.733 40.4204L158.596 39.6916C158.436 39.2845 158.322 38.6101 158.31 37.5989C158.298 36.604 158.386 35.3535 158.582 33.8373L156.598 33.5814ZM156.747 40.4547C157.068 41.1916 157.557 41.7925 158.229 42.1995C158.894 42.602 159.669 42.7733 160.502 42.7733V40.7733C159.94 40.7733 159.546 40.6585 159.265 40.4885C158.992 40.3231 158.759 40.0653 158.582 39.6573L156.747 40.4547ZM160.502 42.7733C161.556 42.7733 162.558 42.4605 163.496 41.8747L162.436 40.1787C161.78 40.5884 161.14 40.7733 160.502 40.7733V42.7733ZM163.509 41.8662C164.416 41.2792 165.172 40.6433 165.75 39.9495L164.214 38.6691C163.796 39.1701 163.208 39.679 162.423 40.1871L163.509 41.8662ZM165.973 39.444L167.839 25.7053L165.858 25.436L163.991 39.1747L165.973 39.444ZM164.315 43.1188C161.585 45.5613 159.05 46.672 156.694 46.672V48.672C159.714 48.672 162.704 47.2441 165.649 44.6092L164.315 43.1188ZM156.694 46.672C154.976 46.672 153.74 46.1477 152.857 45.1853C151.947 44.193 151.303 42.6173 151.042 40.3167L149.055 40.542C149.341 43.0698 150.079 45.1154 151.384 46.5374C152.716 47.9892 154.529 48.672 156.694 48.672V46.672ZM151.042 40.3125C150.856 38.7348 150.921 36.7362 151.263 34.296L149.282 34.0187C148.927 36.5562 148.843 38.739 149.055 40.5462L151.042 40.3125ZM151.263 34.2933C151.602 31.8276 152.177 29.7659 152.969 28.0883L151.16 27.2343C150.26 29.1408 149.64 31.4097 149.282 34.0214L151.263 34.2933ZM152.969 28.0883C153.776 26.3779 154.711 25.0108 155.758 23.9631L154.344 22.5489C153.102 23.791 152.045 25.3608 151.16 27.2343L152.969 28.0883ZM155.75 23.9714C157.691 22.0758 160.097 21.12 163.04 21.12V19.12C159.612 19.12 156.693 20.2548 154.352 22.5406L155.75 23.9714ZM163.04 21.12C166.757 21.12 170.501 21.4868 174.273 22.2215L174.656 20.2585C170.762 19.4999 166.89 19.12 163.04 19.12V21.12ZM173.474 21.0994L169.816 46.8594L171.796 47.1406L175.455 21.3806L173.474 21.0994ZM170.806 46H164.982V48H170.806V46ZM165.982 47V43.864H163.982V47H165.982ZM192.545 20.568L193.538 20.6848L193.67 19.568H192.545V20.568ZM191.948 25.6453V26.6453H192.837L192.941 25.7622L191.948 25.6453ZM186.199 25.6453V24.6453H185.33L185.208 25.5055L186.199 25.6453ZM184.407 38.3387L185.392 38.51L185.395 38.4943L185.397 38.4785L184.407 38.3387ZM184.407 40.8773L183.467 41.2191L183.467 41.2191L184.407 40.8773ZM188.065 41.4L188.382 42.3487L188.416 42.3371L188.45 42.3231L188.065 41.4ZM189.26 40.952H190.26V39.6712L189.017 39.9819L189.26 40.952ZM189.26 45.88L189.503 46.8501L190.26 46.6608V45.88H189.26ZM188.364 46.2533L187.917 45.3589L187.917 45.3589L188.364 46.2533ZM187.02 46.8507L186.649 45.9222L186.633 45.9285L186.617 45.9354L187.02 46.8507ZM177.985 45.8053L177.148 46.3526L177.153 46.3602L177.158 46.3676L177.985 45.8053ZM177.313 39.3093L176.324 39.1634L176.323 39.1713L176.322 39.1793L177.313 39.3093ZM179.329 25.6453L180.319 25.7913L180.488 24.6453H179.329V25.6453ZM176.492 25.6453L175.501 25.5141L175.351 26.6453H176.492V25.6453ZM177.164 20.568V19.568H176.288L176.173 20.4368L177.164 20.568ZM180.001 20.568V21.568H180.87L180.992 20.7078L180.001 20.568ZM180.897 14.2213L180.741 13.2336L180.011 13.349L179.907 14.0815L180.897 14.2213ZM187.991 13.1013L188.98 13.2497L189.182 11.9009L187.835 12.1136L187.991 13.1013ZM186.871 20.568L185.882 20.4197L185.709 21.568H186.871V20.568ZM191.552 20.4512L190.955 25.5285L192.941 25.7622L193.538 20.6848L191.552 20.4512ZM191.948 24.6453H186.199V26.6453H191.948V24.6453ZM185.208 25.5055L183.416 38.1989L185.397 38.4785L187.189 25.7851L185.208 25.5055ZM183.421 38.1673C183.217 39.3445 183.173 40.412 183.467 41.2191L185.346 40.5356C185.242 40.2476 185.198 39.6226 185.392 38.51L183.421 38.1673ZM183.467 41.2191C183.647 41.7142 183.98 42.1126 184.447 42.3695C184.891 42.6137 185.397 42.6987 185.9 42.6987V40.6987C185.606 40.6987 185.465 40.6467 185.411 40.6171C185.388 40.6041 185.379 40.5945 185.374 40.5897C185.37 40.5846 185.359 40.5702 185.346 40.5356L183.467 41.2191ZM185.9 42.6987C186.819 42.6987 187.654 42.5912 188.382 42.3487L187.749 40.4513C187.282 40.607 186.673 40.6987 185.9 40.6987V42.6987ZM188.45 42.3231C189.062 42.0682 189.389 41.9505 189.503 41.9221L189.017 39.9819C188.733 40.0531 188.264 40.234 187.681 40.4769L188.45 42.3231ZM188.26 40.952V45.88H190.26V40.952H188.26ZM189.017 44.9099C188.705 44.9881 188.323 45.1559 187.917 45.3589L188.811 47.1478C189.202 46.9525 189.417 46.8715 189.503 46.8501L189.017 44.9099ZM187.917 45.3589C187.548 45.5434 187.126 45.7314 186.649 45.9222L187.391 47.7791C187.91 47.5717 188.384 47.3615 188.811 47.1478L187.917 45.3589ZM186.617 45.9354C185.516 46.42 184.262 46.672 182.839 46.672V48.672C184.502 48.672 186.035 48.3764 187.423 47.766L186.617 45.9354ZM182.839 46.672C180.58 46.672 179.382 46.0816 178.812 45.243L177.158 46.3676C178.281 48.0179 180.319 48.672 182.839 48.672V46.672ZM178.822 45.2581C178.186 44.2843 177.912 42.4373 178.305 39.4394L176.322 39.1793C175.919 42.2542 176.093 44.738 177.148 46.3526L178.822 45.2581ZM178.303 39.4553L180.319 25.7913L178.34 25.4994L176.324 39.1634L178.303 39.4553ZM179.329 24.6453H176.492V26.6453H179.329V24.6453ZM177.483 25.7765L178.155 20.6992L176.173 20.4368L175.501 25.5141L177.483 25.7765ZM177.164 21.568H180.001V19.568H177.164V21.568ZM180.992 20.7078L181.888 14.3611L179.907 14.0815L179.011 20.4282L180.992 20.7078ZM181.053 15.2091L188.147 14.0891L187.835 12.1136L180.741 13.2336L181.053 15.2091ZM187.002 12.953L185.882 20.4197L187.86 20.7163L188.98 13.2497L187.002 12.953ZM186.871 21.568H192.545V19.568H186.871V21.568ZM209.288 31.544V32.544H210.16L210.279 31.68L209.288 31.544ZM209.064 26.3173L209.949 25.8516L209.949 25.8516L209.064 26.3173ZM204.136 26.392L203.411 25.7032L203.41 25.7043L204.136 26.392ZM202.269 31.544L201.279 31.4054L201.12 32.544H202.269V31.544ZM212.573 40.504L213.561 40.3448L213.331 38.9232L212.079 39.6345L212.573 40.504ZM213.32 45.1333L213.92 45.9333L214.404 45.5707L214.307 44.9741L213.32 45.1333ZM207.347 47.2987L207.154 46.3174L207.135 46.3213L207.115 46.3259L207.347 47.2987ZM199.805 46.9253L199.434 47.8539L199.447 47.8587L199.805 46.9253ZM196.744 44.6107L197.54 44.0046L197.536 44.0002L196.744 44.6107ZM194.952 34.5307L195.941 34.6785L195.943 34.6677L194.952 34.5307ZM199.581 23.5547L198.86 22.8628L198.853 22.8692L198.847 22.8758L199.581 23.5547ZM215.933 26.6907L214.951 26.8763L214.951 26.8787L215.933 26.6907ZM215.411 34.7547L214.444 34.501L214.44 34.5153L214.436 34.5298L215.411 34.7547ZM215.037 35.8747V36.8747H215.452L215.745 36.5818L215.037 35.8747ZM201.672 35.8747V34.8747H200.813L200.684 35.7242L201.672 35.8747ZM202.419 40.8773L201.642 41.5065L201.658 41.5269L201.676 41.5463L202.419 40.8773ZM210.279 31.68C210.458 30.3762 210.533 29.242 210.493 28.2905C210.452 27.354 210.297 26.5125 209.949 25.8516L208.179 26.7831C208.329 27.0679 208.46 27.5705 208.494 28.3762C208.528 29.1669 208.467 30.1731 208.297 31.408L210.279 31.68ZM209.949 25.8516C209.64 25.2639 209.23 24.766 208.698 24.4169C208.158 24.0635 207.547 23.8987 206.899 23.8987V25.8987C207.196 25.8987 207.419 25.9702 207.601 26.0898C207.79 26.2136 207.991 26.425 208.179 26.7831L209.949 25.8516ZM206.899 23.8987C205.612 23.8987 204.446 24.6135 203.411 25.7033L204.861 27.0807C205.717 26.1794 206.394 25.8987 206.899 25.8987V23.8987ZM203.41 25.7043C202.289 26.8875 201.634 28.8725 201.279 31.4054L203.26 31.6826C203.602 29.2377 204.191 27.7881 204.862 27.0797L203.41 25.7043ZM202.269 32.544H209.288V30.544H202.269V32.544ZM206.003 43.3707C208.391 43.3707 210.75 42.6905 213.067 41.3735L212.079 39.6345C210.017 40.8064 207.995 41.3707 206.003 41.3707V43.3707ZM211.586 40.6632L212.333 45.2926L214.307 44.9741L213.561 40.3448L211.586 40.6632ZM212.72 44.3333C211.711 45.0899 209.904 45.7773 207.154 46.3174L207.54 48.2799C210.365 47.7249 212.54 46.9688 213.92 45.9333L212.72 44.3333ZM207.115 46.3259C206.162 46.5528 205.047 46.672 203.763 46.672V48.672C205.166 48.672 206.441 48.5423 207.578 48.2715L207.115 46.3259ZM203.763 46.672C202.545 46.672 201.348 46.4471 200.164 45.992L199.447 47.8587C200.852 48.3991 202.292 48.672 203.763 48.672V46.672ZM200.177 45.9969C199.097 45.5648 198.224 44.9031 197.54 44.0046L195.949 45.2167C196.857 46.4089 198.025 47.2903 199.434 47.8538L200.177 45.9969ZM197.536 44.0002C195.923 41.9077 195.316 38.8624 195.941 34.6785L193.963 34.3829C193.294 38.8603 193.881 42.5349 195.952 45.2212L197.536 44.0002ZM195.943 34.6677C196.571 30.128 198.053 26.6808 200.316 24.2335L198.847 22.8758C196.232 25.705 194.628 29.5751 193.962 34.3937L195.943 34.6677ZM200.303 24.2466C202.42 22.0382 204.853 20.9707 207.645 20.9707V18.9707C204.265 18.9707 201.323 20.2925 198.86 22.8628L200.303 24.2466ZM207.645 20.9707C209.829 20.9707 211.443 21.4919 212.597 22.4274C213.748 23.3604 214.559 24.8018 214.951 26.8763L216.916 26.5051C216.462 24.0995 215.469 22.181 213.857 20.8739C212.248 19.5694 210.141 18.9707 207.645 18.9707V20.9707ZM214.951 26.8787C215.364 29.0329 215.214 31.5649 214.444 34.501L216.378 35.0084C217.201 31.8715 217.399 29.0275 216.916 26.5026L214.951 26.8787ZM214.436 34.5298C214.365 34.8403 214.305 35.0606 214.257 35.2038C214.233 35.2759 214.218 35.311 214.213 35.3206C214.211 35.3247 214.216 35.3131 214.23 35.2917C214.241 35.2731 214.274 35.2244 214.33 35.1676L215.745 36.5818C215.893 36.4336 215.978 36.2664 216.021 36.1768C216.072 36.0681 216.116 35.9508 216.154 35.8362C216.231 35.6061 216.308 35.3161 216.385 34.9795L214.436 34.5298ZM215.037 34.8747H201.672V36.8747H215.037V34.8747ZM200.684 35.7242C200.322 38.1023 200.526 40.1282 201.642 41.5065L203.196 40.2481C202.619 39.5358 202.326 38.2266 202.661 36.0251L200.684 35.7242ZM201.676 41.5463C202.784 42.7781 204.262 43.3707 206.003 43.3707V41.3707C204.757 41.3707 203.845 40.9677 203.162 40.2084L201.676 41.5463Z" fill="black" mask="url(#path-3-outside-1_5_5)"/>
</g>
<defs>
<filter id="filter0_i_5_5" x="4" y="0" width="220" height="64" filterUnits="userSpaceOnUse" color-interpolation-filters="sRGB">
<feFlood flood-opacity="0" result="BackgroundImageFix"/>
<feBlend mode="normal" in="SourceGraphic" in2="BackgroundImageFix" result="shape"/>
<feColorMatrix in="SourceAlpha" type="matrix" values="0 0 0 0 0 0 0 0 0 0 0 0 0 0 0 0 0 0 127 0" result="hardAlpha"/>
<feOffset dy="4"/>
<feGaussianBlur stdDeviation="2"/>
<feComposite in2="hardAlpha" operator="arithmetic" k2="-1" k3="1"/>
<feColorMatrix type="matrix" values="0 0 0 0 0 0 0 0 0 0 0 0 0 0 0 0 0 0 0.25 0"/>
<feBlend mode="normal" in2="shape" result="effect1_innerShadow_5_5"/>
</filter>
<filter id="filter1_d_5_5" x="0" y="0" width="228" height="68" filterUnits="userSpaceOnUse" color-interpolation-filters="sRGB">
<feFlood flood-opacity="0" result="BackgroundImageFix"/>
<feColorMatrix in="SourceAlpha" type="matrix" values="0 0 0 0 0 0 0 0 0 0 0 0 0 0 0 0 0 0 127 0" result="hardAlpha"/>
<feOffset dy="4"/>
<feGaussianBlur stdDeviation="2"/>
<feComposite in2="hardAlpha" operator="out"/>
<feColorMatrix type="matrix" values="0 0 0 0 0 0 0 0 0 0 0 0 0 0 0 0 0 0 0.25 0"/>
<feBlend mode="normal" in2="BackgroundImageFix" result="effect1_dropShadow_5_5"/>
<feBlend mode="normal" in="SourceGraphic" in2="effect1_dropShadow_5_5" result="shape"/>
</filter>
<filter id="filter2_i_5_5" x="12.0467" y="8.99466" width="204.559" height="53.728" filterUnits="userSpaceOnUse" color-interpolation-filters="sRGB">
<feFlood flood-opacity="0" result="BackgroundImageFix"/>
<feBlend mode="normal" in="SourceGraphic" in2="BackgroundImageFix" result="shape"/>
<feColorMatrix in="SourceAlpha" type="matrix" values="0 0 0 0 0 0 0 0 0 0 0 0 0 0 0 0 0 0 127 0" result="hardAlpha"/>
<feOffset dy="4"/>
<feGaussianBlur stdDeviation="2"/>
<feComposite in2="hardAlpha" operator="arithmetic" k2="-1" k3="1"/>
<feColorMatrix type="matrix" values="0 0 0 0 0 0 0 0 0 0 0 0 0 0 0 0 0 0 0.25 0"/>
<feBlend mode="normal" in2="shape" result="effect1_innerShadow_5_5"/>
</filter>
</defs>
</svg>
