<svg width="248" height="88" viewBox="0 0 248 88" fill="none" xmlns="http://www.w3.org/2000/svg">
<g filter="url(#filter0_d_5_5)">
<path d="M4 10C4 4.47715 8.47715 0 14 0H234C239.523 0 244 4.47715 244 10V70C244 75.5228 239.523 80 234 80H14C8.47716 80 4 75.5228 4 70V10Z" fill="#FAFF04"/>
<path d="M14 0.5H234C239.247 0.5 243.5 4.7533 243.5 10V70C243.5 75.2467 239.247 79.5 234 79.5H14C8.7533 79.5 4.5 75.2467 4.5 70V10C4.5 4.7533 8.75329 0.5 14 0.5Z" stroke="black"/>
</g>
<path d="M22.44 60C20.616 60 19.32 59.648 18.552 58.944C17.816 58.208 17.448 57.136 17.448 55.728C17.448 55.312 17.464 54.656 17.496 53.76C17.56 52.832 17.64 51.744 17.736 50.496C17.832 49.248 17.928 47.888 18.024 46.416C18.152 44.944 18.28 43.44 18.408 41.904C18.568 40.016 18.696 38.4 18.792 37.056C18.92 35.68 19.016 34.512 19.08 33.552C19.144 32.56 19.192 31.744 19.224 31.104C19.288 30.432 19.32 29.856 19.32 29.376C19.352 28.864 19.368 28.4 19.368 27.984C19.4 27.568 19.416 27.12 19.416 26.64C19.416 26.384 19.496 26.208 19.656 26.112C19.816 25.984 19.976 25.92 20.136 25.92C20.968 25.92 21.88 25.904 22.872 25.872C23.864 25.808 24.856 25.744 25.848 25.68C26.84 25.616 27.8 25.568 28.728 25.536C29.656 25.472 30.472 25.44 31.176 25.44C33.224 25.44 34.984 25.696 36.456 26.208C37.928 26.688 39.112 27.408 40.008 28.368C40.936 29.296 41.608 30.432 42.024 31.776C42.472 33.12 42.696 34.656 42.696 36.384C42.696 38.272 42.44 40.096 41.928 41.856C41.448 43.584 40.68 45.12 39.624 46.464C38.568 47.808 37.208 48.88 35.544 49.68C33.88 50.48 31.896 50.88 29.592 50.88C28.216 50.88 27.048 50.736 26.088 50.448L25.416 59.28C25.384 59.536 25.32 59.728 25.224 59.856C25.128 59.952 24.936 60 24.648 60H22.44ZM30.216 32.64C29.8 32.64 29.336 32.672 28.824 32.736C28.312 32.768 27.768 32.816 27.192 32.88C27.128 34.224 27.048 35.856 26.952 37.776C26.856 39.696 26.728 41.712 26.568 43.824C27.048 43.952 27.512 44.048 27.96 44.112C28.44 44.144 28.872 44.16 29.256 44.16C30.376 44.16 31.272 43.904 31.944 43.392C32.648 42.848 33.192 42.192 33.576 41.424C33.96 40.656 34.216 39.856 34.344 39.024C34.472 38.192 34.536 37.472 34.536 36.864C34.536 35.488 34.216 34.448 33.576 33.744C32.968 33.008 31.848 32.64 30.216 32.64ZM43.4655 54.096C43.4655 51.216 44.7615 48.96 47.3535 47.328C49.9455 45.696 53.7695 44.816 58.8255 44.688C58.8575 44.336 58.8735 44.048 58.8735 43.824C58.9055 43.568 58.9215 43.264 58.9215 42.912C58.9215 41.888 58.7295 41.072 58.3455 40.464C57.9615 39.856 57.1615 39.552 55.9455 39.552C55.2735 39.552 54.7295 39.648 54.3135 39.84C53.8975 40.032 53.5615 40.304 53.3055 40.656C53.0495 40.976 52.8415 41.376 52.6815 41.856C52.5215 42.336 52.3775 42.864 52.2495 43.44C52.1855 43.728 52.0415 43.92 51.8175 44.016C51.5935 44.08 51.2415 44.112 50.7615 44.112C47.4975 44.112 45.8655 42.88 45.8655 40.416C45.8655 39.424 46.0895 38.48 46.5375 37.584C47.0175 36.688 47.7055 35.92 48.6015 35.28C49.5295 34.608 50.6815 34.08 52.0575 33.696C53.4335 33.312 55.0335 33.12 56.8575 33.12C60.4095 33.12 62.9855 33.856 64.5855 35.328C66.1855 36.8 66.9855 38.88 66.9855 41.568C66.9855 41.92 66.9375 42.56 66.8415 43.488C66.7775 44.384 66.6815 45.344 66.5535 46.368C66.4575 47.36 66.3615 48.304 66.2655 49.2C66.2015 50.096 66.1695 50.72 66.1695 51.072C66.1695 51.872 66.3135 52.448 66.6015 52.8C66.8895 53.12 67.2095 53.344 67.5615 53.472C67.9455 53.6 68.2815 53.696 68.5695 53.76C68.8575 53.824 69.0015 53.984 69.0015 54.24C69.0015 54.944 68.9055 55.664 68.7135 56.4C68.5215 57.136 68.2015 57.808 67.7535 58.416C67.3375 59.024 66.7455 59.52 65.9775 59.904C65.2415 60.288 64.3295 60.48 63.2415 60.48C61.7055 60.48 60.5535 60.112 59.7855 59.376C59.0175 58.64 58.5055 57.616 58.2495 56.304C57.4815 57.424 56.4735 58.4 55.2255 59.232C54.0095 60.064 52.4095 60.48 50.4255 60.48C49.4655 60.48 48.5535 60.368 47.6895 60.144C46.8575 59.92 46.1215 59.552 45.4815 59.04C44.8735 58.528 44.3775 57.872 43.9935 57.072C43.6415 56.24 43.4655 55.248 43.4655 54.096ZM58.3935 48.624C57.5615 48.624 56.7455 48.688 55.9455 48.816C55.1455 48.944 54.4255 49.152 53.7855 49.44C53.1775 49.696 52.6815 50.048 52.2975 50.496C51.9135 50.944 51.7215 51.488 51.7215 52.128C51.7215 52.864 51.9455 53.376 52.3935 53.664C52.8735 53.952 53.3855 54.096 53.9295 54.096C54.4415 54.096 54.9535 53.984 55.4655 53.76C55.9775 53.536 56.4255 53.2 56.8095 52.752C57.2255 52.272 57.5775 51.696 57.8655 51.024C58.1535 50.352 58.3295 49.552 58.3935 48.624ZM87.4564 45.072C87.2644 45.072 87.0404 45.072 86.7844 45.072C86.5604 45.04 86.3364 45.008 86.1124 44.976C85.8884 44.912 85.6964 44.848 85.5364 44.784C85.3764 44.688 85.2964 44.576 85.2964 44.448C85.2964 44.032 85.3124 43.648 85.3444 43.296C85.3764 42.944 85.3924 42.576 85.3924 42.192C85.3924 41.488 85.2964 40.912 85.1044 40.464C84.9124 40.016 84.5284 39.792 83.9524 39.792C83.0564 39.792 82.3044 40.384 81.6964 41.568C81.1204 42.72 80.7524 44.464 80.5924 46.8C80.5284 47.824 80.4324 48.992 80.3044 50.304C80.2084 51.584 80.1124 52.832 80.0164 54.048C79.9204 55.232 79.8404 56.288 79.7764 57.216C79.7124 58.144 79.6804 58.752 79.6804 59.04C79.6804 59.36 79.5684 59.6 79.3444 59.76C79.1204 59.92 78.8804 60 78.6244 60H76.8964C75.9044 60 75.0884 59.904 74.4484 59.712C73.8404 59.488 73.3444 59.184 72.9604 58.8C72.6084 58.416 72.3524 57.952 72.1924 57.408C72.0644 56.832 72.0004 56.176 72.0004 55.44C72.0004 54.96 72.0164 54.288 72.0484 53.424C72.1124 52.528 72.2084 51.312 72.3364 49.776C72.4644 48.208 72.6084 46.24 72.7684 43.872C72.9604 41.472 73.1844 38.512 73.4404 34.992C73.5044 34.064 73.8404 33.6 74.4484 33.6H76.3204C77.2164 33.6 77.9684 33.696 78.5764 33.888C79.1844 34.08 79.6804 34.352 80.0644 34.704C80.4484 35.024 80.7204 35.408 80.8804 35.856C81.0724 36.304 81.2004 36.768 81.2644 37.248C81.6484 36.512 82.0964 35.888 82.6084 35.376C83.1524 34.832 83.7124 34.4 84.2884 34.08C84.8644 33.728 85.4564 33.488 86.0644 33.36C86.6724 33.2 87.2324 33.12 87.7444 33.12C88.3524 33.12 88.9604 33.232 89.5684 33.456C90.2084 33.68 90.7844 34.016 91.2964 34.464C91.8084 34.912 92.2084 35.488 92.4964 36.192C92.8164 36.896 92.9764 37.728 92.9764 38.688C92.9764 39.552 92.8484 40.368 92.5924 41.136C92.3364 41.904 91.9684 42.592 91.4884 43.2C91.0084 43.776 90.4164 44.24 89.7124 44.592C89.0404 44.912 88.2884 45.072 87.4564 45.072ZM117.721 56.112C117.721 56.272 117.641 56.592 117.481 57.072C117.321 57.552 117.065 58.048 116.713 58.56C116.361 59.072 115.913 59.52 115.369 59.904C114.857 60.288 114.233 60.48 113.497 60.48C112.633 60.48 111.769 60.192 110.905 59.616C110.073 59.04 109.241 58.256 108.409 57.264C107.577 56.272 106.729 55.104 105.865 53.76C105.033 52.384 104.185 50.896 103.321 49.296C103.193 50.992 103.065 52.656 102.937 54.288C102.809 55.92 102.681 57.504 102.553 59.04C102.521 59.424 102.441 59.68 102.313 59.808C102.185 59.936 101.913 60 101.497 60H99.7691C98.7771 60 97.9611 59.904 97.3211 59.712C96.6811 59.488 96.1851 59.184 95.8331 58.8C95.4811 58.416 95.2251 57.936 95.0651 57.36C94.9371 56.752 94.8731 56.064 94.8731 55.296C94.8731 54.912 94.8891 54.512 94.9211 54.096C94.9531 53.68 95.0011 53.088 95.0651 52.32C95.1291 51.552 95.2091 50.544 95.3051 49.296C95.4331 48.048 95.5771 46.4 95.7371 44.352C95.8971 42.304 96.0731 39.792 96.2651 36.816C96.4891 33.808 96.7291 30.16 96.9851 25.872C97.0171 25.168 97.0971 24.752 97.2251 24.624C97.3211 24.528 97.5771 24.48 97.9931 24.48H99.8651C100.857 24.48 101.673 24.592 102.313 24.816C102.953 25.04 103.465 25.344 103.849 25.728C104.233 26.112 104.489 26.56 104.617 27.072C104.777 27.584 104.857 28.112 104.857 28.656C104.857 28.976 104.825 29.52 104.761 30.288C104.729 31.024 104.681 31.936 104.617 33.024C104.553 34.08 104.457 35.28 104.329 36.624C104.233 37.968 104.137 39.376 104.041 40.848L111.721 33.84C112.009 33.584 112.265 33.408 112.489 33.312C112.745 33.216 112.937 33.168 113.065 33.168C113.417 33.168 113.801 33.392 114.217 33.84C114.633 34.288 115.017 34.816 115.369 35.424C115.753 36 116.057 36.608 116.281 37.248C116.537 37.856 116.665 38.352 116.665 38.736C116.665 39.664 115.913 40.64 114.409 41.664C112.937 42.688 110.697 43.84 107.689 45.12C109.033 46.624 110.313 48 111.529 49.248C112.745 50.496 113.801 51.6 114.697 52.56C115.625 53.52 116.361 54.304 116.905 54.912C117.449 55.52 117.721 55.92 117.721 56.112ZM151.708 34.416C151.452 35.184 151.116 36.192 150.7 37.44C150.316 38.656 149.884 40 149.404 41.472C148.924 42.944 148.428 44.512 147.916 46.176C147.404 47.808 146.876 49.408 146.332 50.976C145.82 52.544 145.308 54.048 144.796 55.488C144.284 56.896 143.82 58.128 143.404 59.184C143.276 59.44 143.004 59.648 142.588 59.808C142.204 59.936 141.58 60 140.716 60C140.172 60 139.612 59.968 139.036 59.904C138.46 59.84 137.916 59.712 137.404 59.52C136.924 59.328 136.492 59.072 136.108 58.752C135.756 58.432 135.484 58.032 135.292 57.552C134.812 55.92 134.348 54.112 133.9 52.128C133.484 50.112 133.068 48.064 132.652 45.984C132.236 43.904 131.82 41.872 131.404 39.888C131.02 37.872 130.62 36.048 130.204 34.416C130.204 34.864 130.188 35.632 130.156 36.72C130.124 37.808 130.092 39.072 130.06 40.512C130.028 41.952 129.98 43.504 129.916 45.168C129.884 46.832 129.852 48.464 129.82 50.064C129.788 51.632 129.756 53.104 129.724 54.48C129.692 55.824 129.676 56.928 129.676 57.792C129.676 58.752 129.612 59.36 129.484 59.616C129.388 59.872 129.196 60 128.908 60H126.268C124.444 60 123.148 59.648 122.38 58.944C121.644 58.208 121.276 57.136 121.276 55.728C121.276 55.344 121.292 54.704 121.324 53.808C121.388 52.88 121.468 51.792 121.564 50.544C121.66 49.296 121.756 47.936 121.852 46.464C121.98 44.96 122.108 43.44 122.236 41.904C122.396 39.824 122.524 38.096 122.62 36.72C122.748 35.312 122.844 34.144 122.908 33.216C122.972 32.288 123.02 31.536 123.052 30.96C123.116 30.384 123.148 29.872 123.148 29.424C123.18 28.976 123.196 28.56 123.196 28.176C123.228 27.76 123.244 27.248 123.244 26.64C123.244 26.384 123.34 26.208 123.532 26.112C123.724 25.984 123.9 25.92 124.06 25.92H130.78C132.028 25.92 133.052 26.128 133.852 26.544C134.652 26.928 135.308 27.536 135.82 28.368C136.332 29.2 136.748 30.288 137.068 31.632C137.388 32.944 137.676 34.512 137.932 36.336C138.22 38.16 138.524 40.272 138.844 42.672C139.196 45.04 139.644 47.712 140.188 50.688C140.7 48.704 141.132 47.056 141.484 45.744C141.836 44.432 142.124 43.344 142.348 42.48C142.604 41.584 142.812 40.848 142.972 40.272C143.132 39.696 143.276 39.168 143.404 38.688C143.532 38.176 143.676 37.632 143.836 37.056C143.996 36.48 144.188 35.76 144.412 34.896C144.636 34.032 144.908 32.96 145.228 31.68C145.58 30.368 146.012 28.72 146.524 26.736C146.588 26.544 146.7 26.368 146.86 26.208C147.02 26.016 147.308 25.92 147.724 25.92H155.212C156.236 25.92 157.052 26.032 157.66 26.256C158.3 26.448 158.796 26.736 159.148 27.12C159.5 27.504 159.74 27.984 159.868 28.56C159.996 29.104 160.06 29.744 160.06 30.48C160.06 31.216 160.012 32.416 159.916 34.08C159.852 35.712 159.74 37.568 159.58 39.648C159.452 41.696 159.308 43.824 159.148 46.032C159.02 48.24 158.876 50.288 158.716 52.176C158.588 54.064 158.476 55.664 158.38 56.976C158.284 58.288 158.22 59.056 158.188 59.28C158.156 59.536 158.092 59.728 157.996 59.856C157.9 59.952 157.708 60 157.42 60H154.78C152.956 60 151.66 59.648 150.892 58.944C150.156 58.208 149.788 57.264 149.788 56.112C149.788 55.76 149.82 55.12 149.884 54.192C149.98 53.264 150.092 52.176 150.22 50.928C150.348 49.68 150.492 48.32 150.652 46.848C150.812 45.344 150.956 43.856 151.084 42.384C151.212 40.912 151.324 39.488 151.42 38.112C151.548 36.704 151.644 35.472 151.708 34.416ZM162.95 54.096C162.95 51.216 164.246 48.96 166.838 47.328C169.43 45.696 173.254 44.816 178.31 44.688C178.342 44.336 178.358 44.048 178.358 43.824C178.39 43.568 178.406 43.264 178.406 42.912C178.406 41.888 178.214 41.072 177.83 40.464C177.446 39.856 176.646 39.552 175.43 39.552C174.758 39.552 174.214 39.648 173.798 39.84C173.382 40.032 173.046 40.304 172.79 40.656C172.534 40.976 172.326 41.376 172.166 41.856C172.006 42.336 171.862 42.864 171.734 43.44C171.67 43.728 171.526 43.92 171.302 44.016C171.078 44.08 170.726 44.112 170.246 44.112C166.982 44.112 165.35 42.88 165.35 40.416C165.35 39.424 165.574 38.48 166.022 37.584C166.502 36.688 167.19 35.92 168.086 35.28C169.014 34.608 170.166 34.08 171.542 33.696C172.918 33.312 174.518 33.12 176.342 33.12C179.894 33.12 182.47 33.856 184.07 35.328C185.67 36.8 186.47 38.88 186.47 41.568C186.47 41.92 186.422 42.56 186.326 43.488C186.262 44.384 186.166 45.344 186.038 46.368C185.942 47.36 185.846 48.304 185.75 49.2C185.686 50.096 185.654 50.72 185.654 51.072C185.654 51.872 185.798 52.448 186.086 52.8C186.374 53.12 186.694 53.344 187.046 53.472C187.43 53.6 187.766 53.696 188.054 53.76C188.342 53.824 188.486 53.984 188.486 54.24C188.486 54.944 188.39 55.664 188.198 56.4C188.006 57.136 187.686 57.808 187.238 58.416C186.822 59.024 186.23 59.52 185.462 59.904C184.726 60.288 183.814 60.48 182.726 60.48C181.19 60.48 180.038 60.112 179.27 59.376C178.502 58.64 177.99 57.616 177.734 56.304C176.966 57.424 175.958 58.4 174.71 59.232C173.494 60.064 171.894 60.48 169.91 60.48C168.95 60.48 168.038 60.368 167.174 60.144C166.342 59.92 165.606 59.552 164.966 59.04C164.358 58.528 163.862 57.872 163.478 57.072C163.126 56.24 162.95 55.248 162.95 54.096ZM177.878 48.624C177.046 48.624 176.23 48.688 175.43 48.816C174.63 48.944 173.91 49.152 173.27 49.44C172.662 49.696 172.166 50.048 171.782 50.496C171.398 50.944 171.206 51.488 171.206 52.128C171.206 52.864 171.43 53.376 171.878 53.664C172.358 53.952 172.87 54.096 173.414 54.096C173.926 54.096 174.438 53.984 174.95 53.76C175.462 53.536 175.91 53.2 176.294 52.752C176.71 52.272 177.062 51.696 177.35 51.024C177.638 50.352 177.814 49.552 177.878 48.624ZM201.757 40.08C201.661 41.296 201.549 42.496 201.421 43.68C201.325 44.864 201.229 45.984 201.133 47.04C201.037 48.096 200.957 49.04 200.893 49.872C200.861 50.704 200.845 51.344 200.845 51.792C200.845 52.624 200.941 53.184 201.133 53.472C201.325 53.728 201.645 53.856 202.093 53.856C202.445 53.856 202.749 53.792 203.005 53.664C203.261 53.536 203.501 53.392 203.725 53.232C203.949 53.072 204.141 52.928 204.301 52.8C204.493 52.672 204.701 52.608 204.925 52.608C205.149 52.608 205.357 52.736 205.549 52.992C205.741 53.248 205.837 53.84 205.837 54.768C205.837 56.528 205.357 57.92 204.397 58.944C203.437 59.968 201.789 60.48 199.453 60.48C197.149 60.48 195.437 59.952 194.317 58.896C193.229 57.808 192.685 56.16 192.685 53.952C192.685 53.472 192.701 52.912 192.733 52.272C192.797 51.6 192.877 50.736 192.973 49.68C193.069 48.624 193.181 47.328 193.309 45.792C193.469 44.256 193.629 42.352 193.789 40.08H191.245C190.989 40.08 190.829 40.032 190.765 39.936C190.733 39.808 190.717 39.632 190.717 39.408L190.861 36.96C190.893 36.544 190.941 36.144 191.005 35.76C191.101 35.344 191.261 34.976 191.485 34.656C191.741 34.336 192.093 34.08 192.541 33.888C192.989 33.696 193.581 33.6 194.317 33.6C194.541 33.024 194.797 32.336 195.085 31.536C195.373 30.736 195.661 29.968 195.949 29.232C196.237 28.464 196.509 27.824 196.765 27.312C197.053 26.8 197.309 26.544 197.533 26.544H198.925C200.269 26.544 201.197 26.96 201.709 27.792C202.221 28.624 202.477 29.616 202.477 30.768C202.477 31.408 202.429 32.352 202.333 33.6H207.373C207.885 33.6 208.141 33.824 208.141 34.272L207.949 36.864C207.885 37.824 207.613 38.608 207.133 39.216C206.685 39.792 205.741 40.08 204.301 40.08H201.757ZM221.369 60.48C219.961 60.48 218.553 60.304 217.145 59.952C215.769 59.6 214.521 58.992 213.401 58.128C212.313 57.264 211.417 56.112 210.713 54.672C210.009 53.232 209.657 51.424 209.657 49.248C209.657 48.448 209.721 47.488 209.849 46.368C209.977 45.248 210.217 44.096 210.569 42.912C210.953 41.728 211.465 40.56 212.105 39.408C212.777 38.224 213.641 37.168 214.697 36.24C215.753 35.312 217.033 34.56 218.537 33.984C220.041 33.408 221.833 33.12 223.913 33.12C225.577 33.12 226.985 33.312 228.137 33.696C229.289 34.08 230.217 34.608 230.921 35.28C231.625 35.92 232.137 36.672 232.457 37.536C232.777 38.4 232.937 39.328 232.937 40.32C232.937 41.792 232.633 43.04 232.025 44.064C231.449 45.088 230.681 45.952 229.721 46.656C228.793 47.328 227.753 47.856 226.601 48.24C225.449 48.624 224.313 48.928 223.193 49.152C222.073 49.344 221.033 49.472 220.073 49.536C219.145 49.568 218.425 49.584 217.913 49.584C217.913 50.192 217.993 50.8 218.153 51.408C218.345 51.984 218.617 52.496 218.969 52.944C219.321 53.392 219.785 53.76 220.361 54.048C220.937 54.336 221.641 54.48 222.473 54.48C223.305 54.48 223.945 54.352 224.393 54.096C224.873 53.808 225.257 53.504 225.545 53.184C225.833 52.832 226.073 52.528 226.265 52.272C226.489 51.984 226.777 51.84 227.129 51.84C227.289 51.84 227.561 51.888 227.945 51.984C228.361 52.048 228.777 52.208 229.193 52.464C229.609 52.72 229.977 53.072 230.297 53.52C230.617 53.968 230.777 54.544 230.777 55.248C230.777 56.176 230.489 56.976 229.913 57.648C229.337 58.32 228.585 58.864 227.657 59.28C226.761 59.696 225.753 60 224.633 60.192C223.513 60.384 222.425 60.48 221.369 60.48ZM222.281 39.504C221.577 39.504 220.969 39.712 220.457 40.128C219.977 40.512 219.561 41.008 219.209 41.616C218.889 42.224 218.633 42.896 218.441 43.632C218.281 44.368 218.153 45.072 218.057 45.744C220.041 45.712 221.641 45.376 222.857 44.736C224.105 44.096 224.729 43.184 224.729 42C224.729 41.36 224.521 40.784 224.105 40.272C223.721 39.76 223.113 39.504 222.281 39.504Z" fill="black"/>
<defs>
<filter id="filter0_d_5_5" x="0" y="0" width="248" height="88" filterUnits="userSpaceOnUse" color-interpolation-filters="sRGB">
<feFlood flood-opacity="0" result="BackgroundImageFix"/>
<feColorMatrix in="SourceAlpha" type="matrix" values="0 0 0 0 0 0 0 0 0 0 0 0 0 0 0 0 0 0 127 0" result="hardAlpha"/>
<feOffset dy="4"/>
<feGaussianBlur stdDeviation="2"/>
<feComposite in2="hardAlpha" operator="out"/>
<feColorMatrix type="matrix" values="0 0 0 0 0 0 0 0 0 0 0 0 0 0 0 0 0 0 0.25 0"/>
<feBlend mode="normal" in2="BackgroundImageFix" result="effect1_dropShadow_5_5"/>
<feBlend mode="normal" in="SourceGraphic" in2="effect1_dropShadow_5_5" result="shape"/>
</filter>
</defs>
</svg>
